 <svg  version="1.0" xmlns="http://www.w3.org/2000/svg"  width="80.000000pt" height="80.000000pt" viewBox="0 0 675.000000 675.000000"  preserveAspectRatio="xMidYMid meet">  <g transform="translate(0.000000,675.000000) scale(0.100000,-0.100000)" fill="#b30000" stroke="none"> <path d="M3220 6455 c-14 -8 -32 -14 -40 -15 -24 0 -86 -34 -145 -80 -109 -84 -181 -215 -194 -352 -3 -37 -12 -73 -19 -80 -10 -10 -74 -14 -245 -18 -281 -6 -269 -1 -286 -137 -14 -114 -15 -538 -1 -564 6 -10 26 -35 46 -54 l35 -35 992 0 992 0 38 33 38 32 9 142 c5 79 5 227 0 336 -11 263 15 240 -286 245 -127 3 -237 8 -244 12 -7 4 -16 36 -20 71 -12 91 -41 176 -83 244 -29 47 -146 152 -197 176 -100 48 -123 53 -245 56 -91 2 -126 -1 -145 -12z m206 -287 c27 -12 58 -38 75 -61 24 -33 29 -50 29 -99 0 -49 -5 -66 -26 -94 -41 -53 -83 -74 -147 -74 -54 0 -58 2 -107 50 -38 38 -50 59 -51 83 -6 117 23 168 116 203 45 17 61 16 111 -8z"/> <path d="M1460 5704 c-163 -54 -261 -151 -310 -307 -19 -61 -20 -114 -20 -2414 0 -2132 2 -2357 16 -2395 26 -70 47 -110 81 -156 33 -45 152 -142 175 -142 7 0 22 -7 32 -15 17 -13 265 -15 1924 -15 2033 0 1905 -3 1982 41 8 5 22 12 30 16 66 30 146 116 199 217 l31 59 0 2406 -1 2406 -24 40 c-14 22 -29 50 -35 62 -14 33 -106 120 -159 151 -93 55 -102 56 -326 57 l-210 0 -3 -166 c-1 -92 2 -178 7 -191 l10 -26 163 -1 c121 -1 166 -5 176 -15 9 -8 17 -54 23 -117 12 -149 11 -3863 -1 -4209 -6 -157 -12 -295 -15 -306 -3 -12 -12 -25 -21 -28 -8 -3 -825 -6 -1816 -6 l-1800 0 -24 22 -24 23 0 2296 c0 2195 1 2298 18 2319 17 21 29 23 182 29 l165 6 0 185 0 185 -190 2 c-145 1 -201 -2 -235 -13z"/> <path d="M2695 4623 c-16 -9 -37 -20 -45 -25 -8 -4 -22 -11 -30 -15 -8 -3 -31 -19 -51 -35 -20 -15 -42 -28 -48 -28 -6 0 -11 -4 -11 -8 0 -5 -21 -24 -47 -43 -73 -52 -170 -147 -220 -215 l-45 -62 -71 59 c-38 32 -75 59 -82 59 -20 0 -45 -35 -45 -64 0 -16 14 -46 32 -70 71 -91 134 -159 161 -173 45 -23 80 5 165 132 40 60 76 112 80 115 4 3 23 25 41 50 51 67 128 145 201 203 95 76 129 115 113 131 -12 12 -68 6 -98 -11z"/> <path d="M1785 4551 c-34 -5 -41 -10 -46 -36 -9 -40 -11 -660 -2 -720 10 -76 15 -77 423 -83 l346 -4 28 23 c38 34 45 78 46 290 0 234 -5 242 -78 133 -57 -84 -85 -161 -76 -210 3 -18 1 -41 -5 -53 -11 -21 -18 -21 -266 -21 -161 0 -256 4 -260 10 -8 14 -8 506 0 520 4 6 68 10 169 10 l164 0 58 55 c33 30 62 55 66 55 5 0 8 9 8 20 0 20 -6 20 -267 19 -148 -1 -286 -5 -308 -8z"/> <path d="M3106 4531 c-34 -5 -54 -14 -67 -32 -40 -53 -10 -93 78 -103 82 -9 1434 -10 1551 -1 89 7 93 9 108 36 13 26 13 32 0 58 -12 23 -24 30 -58 35 -62 9 -1554 16 -1612 7z"/> <path d="M3107 4181 c-44 -9 -87 -46 -87 -75 1 -12 9 -31 19 -43 l19 -23 565 0 c534 0 565 1 580 18 17 19 22 68 9 88 -25 38 -43 39 -562 41 -278 1 -522 -2 -543 -6z"/> <path d="M1804 3323 c-66 -6 -68 -15 -72 -348 -2 -159 -1 -328 3 -373 7 -83 7 -84 41 -98 50 -21 722 -21 763 0 l28 15 6 173 c4 95 7 264 7 375 l0 201 -26 31 -26 31 -341 -2 c-188 -1 -361 -3 -383 -5z m622 -167 c3 -12 4 -131 2 -264 -3 -203 -5 -244 -18 -252 -8 -5 -120 -10 -252 -10 -254 0 -261 1 -273 53 -3 12 -4 128 -3 257 l3 235 255 5 c140 3 261 3 268 1 7 -2 15 -13 18 -25z"/> <path d="M3083 3282 c-67 -20 -82 -75 -32 -116 l31 -26 828 0 829 0 20 26 c12 15 21 40 21 56 0 24 -7 32 -37 46 -35 15 -109 17 -838 19 -440 1 -810 -2 -822 -5z"/> <path d="M3041 2906 c-30 -32 -25 -73 12 -100 28 -21 38 -21 559 -24 l531 -3 38 26 c31 20 39 31 39 56 0 20 -8 38 -22 50 -22 17 -50 18 -579 19 l-556 0 -22 -24z"/> <path d="M1746 2056 c-14 -29 -16 -83 -16 -395 l0 -360 25 -26 26 -25 373 0 373 0 24 26 24 26 -3 376 c-3 327 -5 379 -19 394 -15 17 -47 18 -403 18 l-388 0 -16 -34z m682 -366 c1 -135 0 -255 -3 -268 l-5 -22 -263 2 -262 3 -5 260 c-3 143 -4 263 -2 268 2 4 123 6 270 5 l267 -3 3 -245z"/> <path d="M3095 2053 c-26 -6 -75 -53 -75 -70 0 -8 10 -27 22 -43 l22 -30 831 0 c764 0 833 1 855 17 35 24 38 30 31 66 -13 63 3 62 -876 64 -434 0 -799 -1 -810 -4z"/> <path d="M3042 1670 c-44 -59 -19 -95 74 -110 33 -6 277 -10 544 -10 454 0 488 1 520 19 29 15 36 25 38 54 2 26 -3 42 -17 56 -21 21 -29 21 -579 21 l-558 0 -22 -30z"/> </g> </svg> 